<mxfile host="app.diagrams.net" modified="2024-05-10T14:30:47.290Z" agent="Mozilla/5.0 (Macintosh; Intel Mac OS X 10_15_7) AppleWebKit/537.36 (KHTML, like Gecko) Chrome/124.0.0.0 Safari/537.36" version="24.3.1" etag="EtfscWlLswRQ_ReTTEa-" type="github">
  <diagram name="PÃ¡gina-1" id="bcQ8_V454U70yNW8KuBa">
    <mxGraphModel>
      <root>
        <mxCell id="0" />
        <mxCell id="1" parent="0" />
      </root>
    </mxGraphModel>
  </diagram>
</mxfile>
